<?xml version="1.0" encoding="UTF-8" standalone="no"?>
<!DOCTYPE svg PUBLIC "-//W3C//DTD SVG 1.1//EN"
 "http://www.w3.org/Graphics/SVG/1.1/DTD/svg11.dtd">
<!-- Generated by graphviz version 2.38.0 (20140413.2041)
 -->
<!-- Title: %3 Pages: 1 -->
<svg width="1572pt" height="399pt"
 viewBox="0.00 0.00 1572.14 399.48" xmlns="http://www.w3.org/2000/svg" xmlns:xlink="http://www.w3.org/1999/xlink">
<g id="graph0" class="graph" transform="scale(1 1) rotate(0) translate(4 395.48)">
<title>%3</title>
<polygon fill="white" stroke="none" points="-4,4 -4,-395.48 1568.14,-395.48 1568.14,4 -4,4"/>
<!-- abc.example.com. -->
<g id="node1" class="node"><title>abc.example.com.</title>
<ellipse fill="cyan" stroke="cyan" cx="1086.08" cy="-300.48" rx="105.881" ry="18"/>
<text text-anchor="middle" x="1086.08" y="-296.78" font-family="Times,serif" font-size="14.00">CNAME abc.example.com.</text>
</g>
<!-- abc&#45;ap.example.com. -->
<g id="node3" class="node"><title>abc&#45;ap.example.com.</title>
<ellipse fill="cyan" stroke="cyan" cx="697.08" cy="-204.61" rx="127.059" ry="26.7407"/>
<text text-anchor="middle" x="697.08" y="-208.41" font-family="Times,serif" font-size="14.00">CNAME abc&#45;ap.example.com.</text>
<text text-anchor="middle" x="697.08" y="-193.41" font-family="Times,serif" font-size="14.00">(ap&#45;northeast&#45;1)</text>
</g>
<!-- abc.example.com.&#45;&gt;abc&#45;ap.example.com. -->
<g id="edge2" class="edge"><title>abc.example.com.&#45;&gt;abc&#45;ap.example.com.</title>
<path fill="none" stroke="black" d="M1027.84,-285.427C964.556,-270.155 862.589,-245.549 788.583,-227.691"/>
<polygon fill="black" stroke="black" points="789.332,-224.271 778.79,-225.328 787.69,-231.076 789.332,-224.271"/>
<text text-anchor="middle" x="977.58" y="-253.28" font-family="Times,serif" font-size="14.00" fill="magenta">ap&#45;northeast&#45;1</text>
</g>
<!-- abc&#45;eu.example.com. -->
<g id="node4" class="node"><title>abc&#45;eu.example.com.</title>
<ellipse fill="cyan" stroke="cyan" cx="970.08" cy="-204.61" rx="127.059" ry="26.7407"/>
<text text-anchor="middle" x="970.08" y="-208.41" font-family="Times,serif" font-size="14.00">CNAME abc&#45;eu.example.com.</text>
<text text-anchor="middle" x="970.08" y="-193.41" font-family="Times,serif" font-size="14.00">(eu&#45;west&#45;1)</text>
</g>
<!-- abc.example.com.&#45;&gt;abc&#45;eu.example.com. -->
<g id="edge3" class="edge"><title>abc.example.com.&#45;&gt;abc&#45;eu.example.com.</title>
<path fill="none" stroke="black" d="M1065.34,-282.698C1049.72,-270.055 1027.84,-252.349 1008.99,-237.095"/>
<polygon fill="black" stroke="black" points="1011.1,-234.299 1001.12,-230.729 1006.69,-239.74 1011.1,-234.299"/>
<text text-anchor="middle" x="1069.08" y="-253.28" font-family="Times,serif" font-size="14.00" fill="magenta">eu&#45;west&#45;1</text>
</g>
<!-- abc&#45;iad1.example.com. -->
<g id="node5" class="node"><title>abc&#45;iad1.example.com.</title>
<ellipse fill="cyan" stroke="cyan" cx="1429.08" cy="-99.8701" rx="135.115" ry="26.7407"/>
<text text-anchor="middle" x="1429.08" y="-103.67" font-family="Times,serif" font-size="14.00">CNAME abc&#45;iad1.example.com.</text>
<text text-anchor="middle" x="1429.08" y="-88.6701" font-family="Times,serif" font-size="14.00">(USW2 to iad1)</text>
</g>
<!-- abc.example.com.&#45;&gt;abc&#45;iad1.example.com. -->
<g id="edge4" class="edge"><title>abc.example.com.&#45;&gt;abc&#45;iad1.example.com.</title>
<path fill="none" stroke="black" d="M1176.21,-291.006C1258.16,-281.422 1370.91,-262.905 1402.08,-231.48 1426.48,-206.883 1431.58,-166.421 1431.61,-137.042"/>
<polygon fill="black" stroke="black" points="1435.1,-136.702 1431.41,-126.77 1428.1,-136.834 1435.1,-136.702"/>
<text text-anchor="middle" x="1451.58" y="-200.91" font-family="Times,serif" font-size="14.00" fill="magenta">us&#45;east&#45;1</text>
</g>
<!-- abc&#45;usw2.example.com. -->
<g id="node6" class="node"><title>abc&#45;usw2.example.com.</title>
<ellipse fill="cyan" stroke="cyan" cx="1254.08" cy="-204.61" rx="138.686" ry="26.7407"/>
<text text-anchor="middle" x="1254.08" y="-208.41" font-family="Times,serif" font-size="14.00">CNAME abc&#45;usw2.example.com.</text>
<text text-anchor="middle" x="1254.08" y="-193.41" font-family="Times,serif" font-size="14.00">(us&#45;west&#45;2)</text>
</g>
<!-- abc.example.com.&#45;&gt;abc&#45;usw2.example.com. -->
<g id="edge5" class="edge"><title>abc.example.com.&#45;&gt;abc&#45;usw2.example.com.</title>
<path fill="none" stroke="black" d="M1115.34,-283.129C1138.93,-269.953 1172.7,-251.079 1201.02,-235.255"/>
<polygon fill="black" stroke="black" points="1202.99,-238.168 1210.01,-230.235 1199.57,-232.057 1202.99,-238.168"/>
<text text-anchor="middle" x="1202.58" y="-253.28" font-family="Times,serif" font-size="14.00" fill="magenta">us&#45;west&#45;2</text>
</g>
<!-- \052.m.example.com. -->
<g id="node2" class="node"><title>\052.m.example.com.</title>
<ellipse fill="none" stroke="black" cx="1086.08" cy="-373.48" rx="84.485" ry="18"/>
<text text-anchor="middle" x="1086.08" y="-369.78" font-family="Times,serif" font-size="14.00">052.m.example.com.</text>
</g>
<!-- \052.m.example.com.&#45;&gt;abc.example.com. -->
<g id="edge1" class="edge"><title>\052.m.example.com.&#45;&gt;abc.example.com.</title>
<path fill="none" stroke="black" d="M1086.08,-355.293C1086.08,-347.27 1086.08,-337.528 1086.08,-328.549"/>
<polygon fill="black" stroke="black" points="1089.58,-328.509 1086.08,-318.509 1082.58,-328.509 1089.58,-328.509"/>
</g>
<!-- abc&#45;eu&#45;west&#45;1.example.com. -->
<g id="node7" class="node"><title>abc&#45;eu&#45;west&#45;1.example.com.</title>
<ellipse fill="cyan" stroke="cyan" cx="697.08" cy="-99.8701" rx="156.042" ry="26.7407"/>
<text text-anchor="middle" x="697.08" y="-103.67" font-family="Times,serif" font-size="14.00">CNAME abc&#45;eu&#45;west&#45;1.example.com.</text>
<text text-anchor="middle" x="697.08" y="-88.6701" font-family="Times,serif" font-size="14.00">(EUW1 traffic to EUW1)</text>
</g>
<!-- abc&#45;ap.example.com.&#45;&gt;abc&#45;eu&#45;west&#45;1.example.com. -->
<g id="edge6" class="edge"><title>abc&#45;ap.example.com.&#45;&gt;abc&#45;eu&#45;west&#45;1.example.com.</title>
<path fill="none" stroke="black" d="M697.08,-177.685C697.08,-165.395 697.08,-150.507 697.08,-137.121"/>
<polygon fill="black" stroke="black" points="700.58,-136.787 697.08,-126.787 693.58,-136.787 700.58,-136.787"/>
<text text-anchor="middle" x="700.58" y="-148.54" font-family="Times,serif" font-size="14.00" fill="red">0</text>
</g>
<!-- abc&#45;us&#45;west&#45;2.example.com. -->
<g id="node8" class="node"><title>abc&#45;us&#45;west&#45;2.example.com.</title>
<ellipse fill="cyan" stroke="cyan" cx="1120.08" cy="-99.8701" rx="155.627" ry="26.7407"/>
<text text-anchor="middle" x="1120.08" y="-103.67" font-family="Times,serif" font-size="14.00">CNAME abc&#45;us&#45;west&#45;2.example.com.</text>
<text text-anchor="middle" x="1120.08" y="-88.6701" font-family="Times,serif" font-size="14.00">(us&#45;west&#45;2)</text>
</g>
<!-- abc&#45;ap.example.com.&#45;&gt;abc&#45;us&#45;west&#45;2.example.com. -->
<g id="edge7" class="edge"><title>abc&#45;ap.example.com.&#45;&gt;abc&#45;us&#45;west&#45;2.example.com.</title>
<path fill="none" stroke="black" d="M745.223,-179.735C771.503,-167.601 804.947,-153.589 836.08,-144.74 881.683,-131.778 932.562,-122.394 978.517,-115.718"/>
<polygon fill="black" stroke="black" points="979.142,-119.164 988.55,-114.291 978.157,-112.234 979.142,-119.164"/>
<text text-anchor="middle" x="839.58" y="-148.54" font-family="Times,serif" font-size="14.00" fill="red">0</text>
</g>
<!-- abc&#45;ap&#45;northeast&#45;1.example.com. -->
<g id="node9" class="node"><title>abc&#45;ap&#45;northeast&#45;1.example.com.</title>
<ellipse fill="cyan" stroke="cyan" cx="293.08" cy="-99.8701" rx="173.483" ry="26.7407"/>
<text text-anchor="middle" x="293.08" y="-103.67" font-family="Times,serif" font-size="14.00">CNAME abc&#45;ap&#45;northeast&#45;1.example.com.</text>
<text text-anchor="middle" x="293.08" y="-88.6701" font-family="Times,serif" font-size="14.00">(Asia&#45;Pacific traffic for Tokyo DC)</text>
</g>
<!-- abc&#45;ap.example.com.&#45;&gt;abc&#45;ap&#45;northeast&#45;1.example.com. -->
<g id="edge8" class="edge"><title>abc&#45;ap.example.com.&#45;&gt;abc&#45;ap&#45;northeast&#45;1.example.com.</title>
<path fill="none" stroke="black" d="M617.744,-183.435C552.694,-166.892 460.33,-143.403 390.74,-125.706"/>
<polygon fill="black" stroke="black" points="391.198,-122.211 380.643,-123.138 389.472,-128.995 391.198,-122.211"/>
<text text-anchor="middle" x="530.58" y="-148.54" font-family="Times,serif" font-size="14.00">100</text>
</g>
<!-- abc&#45;eu.example.com.&#45;&gt;abc&#45;iad1.example.com. -->
<g id="edge13" class="edge"><title>abc&#45;eu.example.com.&#45;&gt;abc&#45;iad1.example.com.</title>
<path fill="none" stroke="black" d="M1035.94,-181.573C1074.18,-169.397 1123.47,-154.755 1168.08,-144.74 1219.41,-133.216 1233.18,-135.392 1285.08,-126.74 1297.04,-124.746 1309.55,-122.596 1321.98,-120.418"/>
<polygon fill="black" stroke="black" points="1322.68,-123.848 1331.93,-118.667 1321.47,-116.954 1322.68,-123.848"/>
<text text-anchor="middle" x="1175.58" y="-148.54" font-family="Times,serif" font-size="14.00" fill="red">0</text>
</g>
<!-- abc&#45;eu.example.com.&#45;&gt;abc&#45;eu&#45;west&#45;1.example.com. -->
<g id="edge12" class="edge"><title>abc&#45;eu.example.com.&#45;&gt;abc&#45;eu&#45;west&#45;1.example.com.</title>
<path fill="none" stroke="black" d="M922.926,-179.565C899.559,-168.171 870.708,-154.871 844.08,-144.74 826.274,-137.966 806.942,-131.552 788.326,-125.826"/>
<polygon fill="black" stroke="black" points="789.254,-122.45 778.669,-122.896 787.222,-129.149 789.254,-122.45"/>
<text text-anchor="middle" x="890.58" y="-148.54" font-family="Times,serif" font-size="14.00">100</text>
</g>
<!-- 198.51.100.90 -->
<g id="node13" class="node"><title>198.51.100.90</title>
<ellipse fill="chartreuse" stroke="chartreuse" cx="1437.08" cy="-18" rx="75.2868" ry="18"/>
<text text-anchor="middle" x="1437.08" y="-14.3" font-family="Times,serif" font-size="14.00">A 198.51.100.90</text>
</g>
<!-- abc&#45;iad1.example.com.&#45;&gt;198.51.100.90 -->
<g id="edge14" class="edge"><title>abc&#45;iad1.example.com.&#45;&gt;198.51.100.90</title>
<path fill="none" stroke="black" d="M1431.7,-72.7176C1432.54,-64.2726 1433.48,-54.8903 1434.34,-46.3604"/>
<polygon fill="black" stroke="black" points="1437.85,-46.4455 1435.36,-36.1464 1430.88,-45.7477 1437.85,-46.4455"/>
</g>
<!-- abc&#45;usw2.example.com.&#45;&gt;abc&#45;iad1.example.com. -->
<g id="edge16" class="edge"><title>abc&#45;usw2.example.com.&#45;&gt;abc&#45;iad1.example.com.</title>
<path fill="none" stroke="black" d="M1296.44,-178.74C1321.05,-164.29 1352.23,-145.988 1378.17,-130.759"/>
<polygon fill="black" stroke="black" points="1380.26,-133.593 1387.11,-125.512 1376.71,-127.556 1380.26,-133.593"/>
<text text-anchor="middle" x="1354.58" y="-148.54" font-family="Times,serif" font-size="14.00" fill="red">0</text>
</g>
<!-- abc&#45;usw2.example.com.&#45;&gt;abc&#45;us&#45;west&#45;2.example.com. -->
<g id="edge15" class="edge"><title>abc&#45;usw2.example.com.&#45;&gt;abc&#45;us&#45;west&#45;2.example.com.</title>
<path fill="none" stroke="black" d="M1221.3,-178.477C1203.27,-164.65 1180.71,-147.357 1161.47,-132.606"/>
<polygon fill="black" stroke="black" points="1163.52,-129.764 1153.45,-126.457 1159.26,-135.32 1163.52,-129.764"/>
<text text-anchor="middle" x="1206.58" y="-148.54" font-family="Times,serif" font-size="14.00">100</text>
</g>
<!-- m&#45;2345678901.eu&#45;west&#45;1.elb.amazonaws.com. -->
<g id="node10" class="node"><title>m&#45;2345678901.eu&#45;west&#45;1.elb.amazonaws.com.</title>
<ellipse fill="chartreuse" stroke="chartreuse" cx="688.08" cy="-18" rx="209.863" ry="18"/>
<text text-anchor="middle" x="688.08" y="-14.3" font-family="Times,serif" font-size="14.00">CNAME m&#45;2345678901.eu&#45;west&#45;1.elb.amazonaws.com.</text>
</g>
<!-- abc&#45;eu&#45;west&#45;1.example.com.&#45;&gt;m&#45;2345678901.eu&#45;west&#45;1.elb.amazonaws.com. -->
<g id="edge9" class="edge"><title>abc&#45;eu&#45;west&#45;1.example.com.&#45;&gt;m&#45;2345678901.eu&#45;west&#45;1.elb.amazonaws.com.</title>
<path fill="none" stroke="black" d="M694.133,-72.7176C693.181,-64.2726 692.124,-54.8903 691.163,-46.3604"/>
<polygon fill="black" stroke="black" points="694.61,-45.6916 690.012,-36.1464 687.654,-46.4754 694.61,-45.6916"/>
</g>
<!-- m&#45;3456789012.us&#45;west&#45;2.elb.amazonaws.com. -->
<g id="node11" class="node"><title>m&#45;3456789012.us&#45;west&#45;2.elb.amazonaws.com.</title>
<ellipse fill="chartreuse" stroke="chartreuse" cx="1130.08" cy="-18" rx="213.662" ry="18"/>
<text text-anchor="middle" x="1130.08" y="-14.3" font-family="Times,serif" font-size="14.00">CNAME m&#45;3456789012.us&#45;west&#45;2.elb.amazonaws.com.</text>
</g>
<!-- abc&#45;us&#45;west&#45;2.example.com.&#45;&gt;m&#45;3456789012.us&#45;west&#45;2.elb.amazonaws.com. -->
<g id="edge10" class="edge"><title>abc&#45;us&#45;west&#45;2.example.com.&#45;&gt;m&#45;3456789012.us&#45;west&#45;2.elb.amazonaws.com.</title>
<path fill="none" stroke="black" d="M1123.35,-72.7176C1124.42,-64.1788 1125.61,-54.6817 1126.69,-46.0764"/>
<polygon fill="black" stroke="black" points="1130.16,-46.5038 1127.93,-36.1464 1123.22,-45.6341 1130.16,-46.5038"/>
</g>
<!-- m&#45;1234567890.ap&#45;northeast&#45;1.elb.amazonaws.com. -->
<g id="node12" class="node"><title>m&#45;1234567890.ap&#45;northeast&#45;1.elb.amazonaws.com.</title>
<ellipse fill="chartreuse" stroke="chartreuse" cx="230.08" cy="-18" rx="230.159" ry="18"/>
<text text-anchor="middle" x="230.08" y="-14.3" font-family="Times,serif" font-size="14.00">CNAME m&#45;1234567890.ap&#45;northeast&#45;1.elb.amazonaws.com.</text>
</g>
<!-- abc&#45;ap&#45;northeast&#45;1.example.com.&#45;&gt;m&#45;1234567890.ap&#45;northeast&#45;1.elb.amazonaws.com. -->
<g id="edge11" class="edge"><title>abc&#45;ap&#45;northeast&#45;1.example.com.&#45;&gt;m&#45;1234567890.ap&#45;northeast&#45;1.elb.amazonaws.com.</title>
<path fill="none" stroke="black" d="M272.799,-73.159C265.529,-63.9416 257.341,-53.5612 250.093,-44.3727"/>
<polygon fill="black" stroke="black" points="252.696,-42.0207 243.754,-36.3368 247.2,-46.3559 252.696,-42.0207"/>
</g>
</g>
</svg>
