<?xml version="1.0" encoding="UTF-8" standalone="no"?>
<!DOCTYPE svg PUBLIC "-//W3C//DTD SVG 1.1//EN"
 "http://www.w3.org/Graphics/SVG/1.1/DTD/svg11.dtd">
<!-- Generated by graphviz version 2.38.0 (20140413.2041)
 -->
<!-- Title: %3 Pages: 1 -->
<svg width="1193pt" height="344pt"
 viewBox="0.00 0.00 1193.39 344.22" xmlns="http://www.w3.org/2000/svg" xmlns:xlink="http://www.w3.org/1999/xlink">
<g id="graph0" class="graph" transform="scale(1 1) rotate(0) translate(4 340.22)">
<title>%3</title>
<polygon fill="white" stroke="none" points="-4,4 -4,-340.22 1189.39,-340.22 1189.39,4 -4,4"/>
<!-- download&#45;cn.example.com. -->
<g id="node1" class="node"><title>download&#45;cn.example.com.</title>
<ellipse fill="cyan" stroke="cyan" cx="553.07" cy="-236.35" rx="154.713" ry="26.7407"/>
<text text-anchor="middle" x="553.07" y="-240.15" font-family="Times,serif" font-size="14.00">CNAME download&#45;cn.example.com.</text>
<text text-anchor="middle" x="553.07" y="-225.15" font-family="Times,serif" font-size="14.00">(China only)</text>
</g>
<!-- download&#45;global.example.com. -->
<g id="node3" class="node"><title>download&#45;global.example.com.</title>
<ellipse fill="cyan" stroke="cyan" cx="849.07" cy="-131.61" rx="169.912" ry="26.7407"/>
<text text-anchor="middle" x="849.07" y="-135.41" font-family="Times,serif" font-size="14.00">CNAME download&#45;global.example.com.</text>
<text text-anchor="middle" x="849.07" y="-120.41" font-family="Times,serif" font-size="14.00">(global&#45;default)</text>
</g>
<!-- download&#45;cn.example.com.&#45;&gt;download&#45;global.example.com. -->
<g id="edge5" class="edge"><title>download&#45;cn.example.com.&#45;&gt;download&#45;global.example.com.</title>
<path fill="none" stroke="black" d="M620.237,-212.037C665.158,-196.445 724.41,-175.879 771.366,-159.581"/>
<polygon fill="black" stroke="black" points="772.587,-162.862 780.887,-156.276 770.292,-156.249 772.587,-162.862"/>
<text text-anchor="middle" x="722.57" y="-180.28" font-family="Times,serif" font-size="14.00" fill="red">0</text>
</g>
<!-- d1migp6xhego57.cloudfront.net. -->
<g id="node4" class="node"><title>d1migp6xhego57.cloudfront.net.</title>
<ellipse fill="chartreuse" stroke="chartreuse" cx="176.07" cy="-131.61" rx="176.139" ry="26.7407"/>
<text text-anchor="middle" x="176.07" y="-135.41" font-family="Times,serif" font-size="14.00">CNAME d1migp6xhego57.cloudfront.net.</text>
<text text-anchor="middle" x="176.07" y="-120.41" font-family="Times,serif" font-size="14.00">(Cloudfrount)</text>
</g>
<!-- download&#45;cn.example.com.&#45;&gt;d1migp6xhego57.cloudfront.net. -->
<g id="edge3" class="edge"><title>download&#45;cn.example.com.&#45;&gt;d1migp6xhego57.cloudfront.net.</title>
<path fill="none" stroke="black" d="M472.194,-213.31C412.636,-197.079 331.522,-174.974 269.247,-158.003"/>
<polygon fill="black" stroke="black" points="269.989,-154.577 259.42,-155.325 268.148,-161.331 269.989,-154.577"/>
<text text-anchor="middle" x="391.57" y="-180.28" font-family="Times,serif" font-size="14.00" fill="red">0</text>
</g>
<!-- cs68.wac.epsiloncdn.net. -->
<g id="node5" class="node"><title>cs68.wac.epsiloncdn.net.</title>
<ellipse fill="chartreuse" stroke="chartreuse" cx="516.07" cy="-131.61" rx="145.828" ry="26.7407"/>
<text text-anchor="middle" x="516.07" y="-135.41" font-family="Times,serif" font-size="14.00">CNAME cs68.wac.epsiloncdn.net.</text>
<text text-anchor="middle" x="516.07" y="-120.41" font-family="Times,serif" font-size="14.00">(Verizon)</text>
</g>
<!-- download&#45;cn.example.com.&#45;&gt;cs68.wac.epsiloncdn.net. -->
<g id="edge4" class="edge"><title>download&#45;cn.example.com.&#45;&gt;cs68.wac.epsiloncdn.net.</title>
<path fill="none" stroke="black" d="M543.733,-209.425C539.219,-196.892 533.733,-181.656 528.839,-168.068"/>
<polygon fill="black" stroke="black" points="532.085,-166.75 525.403,-158.528 525.499,-169.122 532.085,-166.75"/>
<text text-anchor="middle" x="547.57" y="-180.28" font-family="Times,serif" font-size="14.00">100</text>
</g>
<!-- download.example.com. -->
<g id="node2" class="node"><title>download.example.com.</title>
<ellipse fill="none" stroke="black" cx="740.07" cy="-318.22" rx="96.6831" ry="18"/>
<text text-anchor="middle" x="740.07" y="-314.52" font-family="Times,serif" font-size="14.00">download.example.com.</text>
</g>
<!-- download.example.com.&#45;&gt;download&#45;cn.example.com. -->
<g id="edge1" class="edge"><title>download.example.com.&#45;&gt;download&#45;cn.example.com.</title>
<path fill="none" stroke="black" d="M703.124,-301.441C679.121,-291.189 647.153,-277.534 618.892,-265.464"/>
<polygon fill="black" stroke="black" points="620.038,-262.148 609.467,-261.438 617.289,-268.585 620.038,-262.148"/>
</g>
<!-- download.example.com.&#45;&gt;download&#45;global.example.com. -->
<g id="edge2" class="edge"><title>download.example.com.&#45;&gt;download&#45;global.example.com.</title>
<path fill="none" stroke="black" d="M750.129,-300.184C767.926,-270.04 805.288,-206.762 828.664,-167.17"/>
<polygon fill="black" stroke="black" points="831.786,-168.767 833.856,-158.377 825.758,-165.208 831.786,-168.767"/>
</g>
<!-- download.example.com.c.footprint.net. -->
<g id="node6" class="node"><title>download.example.com.c.footprint.net.</title>
<ellipse fill="chartreuse" stroke="chartreuse" cx="665.07" cy="-26.8701" rx="200.223" ry="26.7407"/>
<text text-anchor="middle" x="665.07" y="-30.6701" font-family="Times,serif" font-size="14.00">CNAME download.example.com.c.footprint.net.</text>
<text text-anchor="middle" x="665.07" y="-15.6701" font-family="Times,serif" font-size="14.00">(Level3)</text>
</g>
<!-- download&#45;global.example.com.&#45;&gt;download.example.com.c.footprint.net. -->
<g id="edge6" class="edge"><title>download&#45;global.example.com.&#45;&gt;download.example.com.c.footprint.net.</title>
<path fill="none" stroke="black" d="M804.058,-105.477C778.441,-91.1732 746.179,-73.1593 719.188,-58.0883"/>
<polygon fill="black" stroke="black" points="720.692,-54.9191 710.254,-53.0997 717.279,-61.0309 720.692,-54.9191"/>
<text text-anchor="middle" x="772.57" y="-75.5401" font-family="Times,serif" font-size="14.00">1</text>
</g>
<!-- cs68.wac.edgecastcdn.net. -->
<g id="node7" class="node"><title>cs68.wac.edgecastcdn.net.</title>
<ellipse fill="chartreuse" stroke="chartreuse" cx="1034.07" cy="-26.8701" rx="151.142" ry="26.7407"/>
<text text-anchor="middle" x="1034.07" y="-30.6701" font-family="Times,serif" font-size="14.00">CNAME cs68.wac.edgecastcdn.net.</text>
<text text-anchor="middle" x="1034.07" y="-15.6701" font-family="Times,serif" font-size="14.00">(Verizon)</text>
</g>
<!-- download&#45;global.example.com.&#45;&gt;cs68.wac.edgecastcdn.net. -->
<g id="edge7" class="edge"><title>download&#45;global.example.com.&#45;&gt;cs68.wac.edgecastcdn.net.</title>
<path fill="none" stroke="black" d="M894.326,-105.477C920.371,-91.0131 953.246,-72.7555 980.566,-57.5833"/>
<polygon fill="black" stroke="black" points="982.557,-60.4811 989.6,-52.5662 979.159,-54.3615 982.557,-60.4811"/>
<text text-anchor="middle" x="960.07" y="-75.5401" font-family="Times,serif" font-size="14.00">99</text>
</g>
</g>
</svg>
